<svg xmlns="http://www.w3.org/2000/svg" viewBox="0 0 20 20" fill="none">
  <g
    transform="translate(-370 -201)"
    stroke="currentColor"
    stroke-width="1.5"
    stroke-linecap="round"
    stroke-linejoin="round"
  >
    <path d="M380 219.333C384.602 219.333 388.333 215.602 388.333 211C388.333 206.398 384.602 202.667 380 202.667C375.398 202.667 371.667 206.398 371.667 211C371.667 215.602 375.398 219.333 380 219.333Z" />
    <path d="M377.575 208.5C377.771 207.943 378.158 207.473 378.667 207.174C379.176 206.875 379.774 206.766 380.356 206.866C380.938 206.965 381.466 207.268 381.846 207.72C382.226 208.171 382.434 208.743 382.433 209.333C382.433 211 379.933 211.833 379.933 211.833" />
    <path d="M380 215.167H380.008" />
  </g>
</svg>
